Patient4_TMGait_0pt4_02_left_32_EMG.mot
version=1
nRows=36
nColumns=33
inDegrees=no
endheader
time	1LAddLong	2LGlutMax	3LGlutMed	4LIliopsoas	5LSemiMemb	6LBicFemLong	7LRecFem	8LVastMed	9LVastLat	10LGasMed	11LTibAnt	12lTibPost	13LPeroneusLong	14LSol	15LExtDigLong	16LFlexDigLong	17RAddLong	18RGlutMax	19RGlutMed	20RIliopsoas	21RSemiMemb	22RBicFemLong	23RRecFem	24RVastMed	25RVastLat	26RGasMed	27RTibAnt	28RTibPost	29RPeroneusLong	30RSol	31RExtDigLong	32RFlexDigLong
43.775	-0.002441	-0.009003	-0.084839	0.0177	0.011597	-0.085297	0.23514	0.002747	-0.009766	-0.025787	0.000153	0.007935	-0.015106	-0.087585	-0.007324	-0.048523	0.070496	-0.07309	-0.23758	-0.033722	0.063324	-0.042725	0.19409	-0.3212	0.098267	-0.00351	0.028839	-0.001984	-0.037231	-0.017242	0.001068	-0.012512
43.776	0.005188	-0.002136	-0.12253	0.015869	0.011597	-0.15732	0.18112	0.001831	0.000916	-0.016022	-0.001068	0.005493	-0.022736	-0.1358	0.022888	-0.036926	0.04715	-0.047913	-0.21927	-0.083771	0.042725	-0.003815	0.12878	-0.2858	0.07843	0.002289	0.026398	-0.001526	-0.070496	0.000763	-0.00061	-0.02182
43.777	0.009155	0.02121	-0.14297	0.019684	-0.002594	-0.1564	0.15381	0.002594	0.047302	-0.019531	-0.006561	0.000916	-0.00885	-0.16571	0.018616	-0.041809	-0.063171	-0.057678	-0.40817	0.023804	0.14801	0.059814	0.059509	-0.20065	0.096893	0.003662	0.014648	-0.002441	-0.035095	-0.024567	-0.000153	-0.014343
43.778	0.007172	0.010529	-0.17822	0.008545	-0.005493	-0.12131	0.215	0.003662	0.025635	0.02594	0.009003	0.001526	-0.034027	-0.16083	0.020294	-0.024872	-0.078888	-0.010834	-0.79514	0.13123	0.089417	0.041046	-0.23117	-0.053101	0.093384	0.003204	-0.042419	-0.003357	0.029297	-0.033569	0.006409	-0.011902
43.779	0.002594	0.034027	-0.18539	0.006866	0.005035	-0.096741	0.22308	0.005798	0.021667	0.037384	0.011292	-0.005646	-0.082855	-0.01297	0.012054	0.002441	-0.022125	0.012054	-0.62302	0.096283	0.057068	0.002136	-0.4631	-0.048981	0.045929	-0.007935	-0.037537	-0.001831	0.023651	-0.054169	0.00061	-0.000305
43.78	0.003815	0.075989	-0.17349	0.007629	0.032349	-0.027313	0.22461	0.000305	-0.006561	0.081635	0.006409	-0.007324	-0.11902	0.12131	-0.000305	-0.014343	0.018005	-0.010376	-0.50034	0.10147	0.10071	-0.050659	-0.62759	-0.027008	-0.11002	-0.01358	0.002289	0.001373	0.020905	-0.06485	0.001373	-0.013733
43.781	-0.000916	0.069733	-0.1683	0.002136	0.033112	0.099792	0.27786	-0.002441	-0.014496	0.077972	0.010834	-0.014496	-0.10361	0.20096	-0.001068	0.041046	0.032806	-0.06897	0.11658	0.029602	0.14053	-0.055847	-0.51758	0.015106	-0.18723	-0.010223	0.07843	-0.001678	0.000458	-0.036469	0.008545	-0.008698
43.782	-0.009003	0.098267	-0.16541	0.009918	0.00946	0.13931	0.27039	0.002747	-0.022583	0.073242	0.005341	-0.010376	0.00885	0.1915	-0.009766	-0.04776	0.045624	-0.10086	0.88623	-0.03418	0.071106	-0.087585	-0.33264	-0.003052	-0.1831	-0.001221	0.11841	-0.000153	-0.071564	-0.030975	-0.000305	-0.000458
43.783	-0.016022	0.093384	-0.16083	0.008087	-0.00412	0.074768	0.23727	-0.00473	-0.015564	0.052185	0.002289	-0.009613	0.13077	0.14755	-0.018616	0.031433	0.053406	-0.1973	0.27145	-0.032196	0.052032	-0.084229	-0.2066	-0.031891	-0.089417	-0.001221	0.036926	-0.001068	-0.026093	-0.03479	0.000153	-0.00061
43.784	-0.010681	0.10437	-0.18646	0.014801	0.023651	0.024414	0.23224	0.004578	-0.006409	0.066071	0.003204	-0.004578	0.14526	0.15305	-0.015259	-0.023499	0.052643	-0.22308	-0.14481	0.011139	-0.000153	-0.084229	-0.089417	-0.13489	-0.10315	-0.006256	-0.01236	-0.000458	0.030823	-0.034943	0.000458	-0.000916
43.785	-0.006561	0.13397	-0.21088	0.008087	0.019684	0.008087	0.2359	0.005493	-0.018616	-0.093079	-0.000763	-0.002289	0.11734	0.18799	-0.014343	-0.034027	0.036926	-0.26977	-0.39932	0.081177	-0.075989	-0.091095	-0.081482	-0.074005	-0.10712	-0.008392	0.013123	0.001984	0.013275	-0.071259	0.001678	0.001526
43.786	-0.003967	0.14099	-0.20599	0.009155	-0.060577	0.007172	0.20447	0.000763	-0.02594	0.32166	0.001678	0.001526	0.02243	-0.094452	0.036316	0.005188	0.049133	-0.21591	-0.29419	0.10452	-0.12543	-0.083466	-0.11368	0.028992	-0.068207	-0.005493	-0.026245	-0.001068	0.035248	-0.035095	0.00061	-0.001526
43.787	0.003662	0.17822	-0.17136	0.016479	-0.086517	-0.008087	0.19211	-0.005798	-0.016174	0.56229	-0.000763	0.009766	-0.16907	-0.289	0.04364	-0.094147	0.042114	-0.2684	-0.289	0.063477	-0.13473	-0.033417	-0.088196	0.030365	-0.017853	-0.005188	-0.039673	-0.003357	0.029449	-0.042114	0.002441	-0.003052
43.788	0.011749	0.17838	-0.16525	0.007172	-0.047607	-0.06546	0.18265	0.004272	-0.024719	0.088348	0.010223	0.062408	-0.23422	-0.27756	0.007019	-0.029907	0.014038	-0.27634	-0.25375	-0.02533	0.224	-0.029449	-0.087585	-0.040741	-0.00473	-0.006866	-0.04715	-0.004272	-0.001373	-0.033112	0.000916	-0.016174
43.789	0.009308	0.19913	-0.17334	0.005188	0.06546	-0.046234	0.17914	-0.00061	-0.040741	0.10529	-0.010681	-0.016632	-0.15106	0.075073	-0.005493	0.16007	-0.029907	-0.32028	-0.29526	-0.049896	0.37369	-0.008392	-0.14328	-0.031586	-0.074921	-0.003967	-0.053711	0.000153	0.010529	-0.035858	0.000305	-0.015106
43.79	0.011139	0.15427	-0.14755	0.006714	0.089417	-0.016785	0.15503	0.00351	-0.008545	0.40253	-0.002747	-0.11978	0.010529	0.17792	0.008087	0.10666	-0.038147	-0.40009	-0.24033	-0.1506	0.2684	-0.033569	-0.18692	0.044708	-0.047302	-0.003052	-0.023651	-0.002136	-0.002441	-0.03418	-0.000305	-0.012665
43.791	-0.000305	0.15442	-0.13687	0.019836	0.053558	0.011749	0.15137	0.014343	0.005951	-0.25848	-0.001373	-0.064392	0.12985	-0.014648	-0.016174	-0.055084	-0.025635	-0.48355	-0.26779	-0.23041	0.16998	0.003967	-0.21896	0.057678	0.070343	-0.007019	-0.000458	-0.001373	-0.002289	-0.024109	0	-0.016785
43.792	-0.005341	0.17929	-0.05249	-0.001984	0.028992	0.011139	0.15961	0.027924	0.018921	-0.68787	-0.002136	0.23666	0.14725	0.042725	-0.038147	-0.17609	-0.020752	-0.45868	-0.23361	-0.16129	0.12421	0.027313	-0.23499	0.06073	0.16571	-0.001068	0.012512	-0.001221	0.011292	-0.028381	0.003052	-0.02594
43.793	-0.002136	0.18097	-0.022888	-0.005341	0.007935	-0.009918	0.14908	0.005646	0.002899	-0.095825	0.000763	-0.022888	0.17029	0.12726	-0.029449	-0.070648	-0.011444	-0.50995	-0.28427	-0.004425	0.11063	0.0737	-0.075073	-0.000153	0.16068	-0.003815	0.053253	-0.001221	0.006714	-0.022888	-0.000153	-0.012665
43.794	-0.002899	0.18051	-0.045929	0.00412	0	-0.055695	0.15137	0.006866	-0.003357	0.036926	0.007172	-0.093689	0.056152	0.11902	-0.010986	0.18051	0.020294	-0.5574	-0.23361	0.13931	0.092163	0.025635	0.00473	0.005951	0.21042	-0.007019	0.047302	-0.002136	0.00946	-0.007172	-0.003052	-0.009155
43.795	0.00412	0.17502	-0.078583	0.017548	0.021515	-0.057068	0.15686	0.017548	-0.014801	-0.27237	0.007019	-0.022736	-0.01358	0.016327	0.002594	0.067139	0.033722	-0.58731	-0.17914	0.17288	0.1001	-0.021667	-0.000763	-0.041962	0.25879	-0.007172	0.030823	-0.001678	-0.021057	-0.010529	0.000763	-0.017242
43.796	0.001068	0.18692	-0.088654	0.025635	0.014496	-0.045319	0.097504	0.001526	-0.013885	-0.23056	0.00351	0.14694	-0.026855	-0.044708	-0.006256	0.1033	0.067902	-0.62882	-0.19272	0.0737	0.072479	-0.024109	-0.10803	-0.10971	0.21149	-0.005493	0.018158	-0.00885	-0.007782	0.003662	-0.001984	-0.011444
43.797	0.000153	0.20004	0.006104	0.005035	0.009613	-0.020599	0.059509	0.010834	-0.009155	-0.014648	0.001984	-0.033569	0.001678	-0.057068	0.003204	0.074921	0.071411	-0.62897	-0.23773	0.000153	0.059052	-0.034027	0.043182	-0.21469	0.24323	-0.014648	0.024872	-0.00351	-0.03006	-0.010529	0.000916	-0.012665
43.798	-0.005035	0.18478	0.098877	0.005188	0.0177	0.024567	0.037689	0.009766	-0.009155	-0.020142	0.00946	-0.01709	0.015564	-0.038605	0.018463	0.014191	0.062561	-0.58411	-0.16098	-0.000458	0.035706	0.027008	0.15747	-0.28427	0.22507	-0.009918	0.021057	-0.002747	-0.027161	-0.024872	0.001678	-0.009155
43.799	-0.004578	0.17593	0.043335	-0.007782	0.017853	0.053406	0.00412	0.007324	0.006256	-0.13962	-0.005493	-0.035553	-0.018463	-0.09201	-0.016937	-0.016327	0.091095	-0.53177	-0.21683	-0.10101	0.035248	0.10071	0.21164	-0.38284	0.10559	-0.003052	0.013885	-0.00351	-0.030975	-0.002441	0.001221	-0.00473
43.8	-0.001678	0.17746	-0.003815	0.020905	0.014496	0.057831	-0.033722	0.004272	0.016785	-0.099487	0.006104	-0.037231	-0.020294	-0.026245	-0.033875	-0.017853	0.044403	-0.48523	-0.26032	-0.050659	0.042114	0.15533	0.028381	-0.32669	0.026855	-0.005493	0.021515	-0.001984	-0.044861	-0.00885	-0.004578	-0.002747
43.801	-0.002136	0.16449	0.027313	0.009766	-0.007477	0.045471	-0.050812	0.002136	0.013123	0.19333	0.010529	-0.008698	-0.028076	0.089569	-0.030212	-0.013733	0.003204	-0.42816	-0.15579	0.15686	0.005951	0.15076	-0.18387	-0.22446	-0.014648	-0.002289	0.029602	-0.010529	-0.039215	-0.020142	-0.00061	-0.011749
43.802	0.003357	0.17075	0.040741	0.014954	-0.019073	-0.005951	-0.066681	0.001984	0.019379	0.41885	0.002136	-0.009613	-0.000916	0.1149	-0.019531	-0.023499	-0.013275	-0.42602	-0.12543	0.38223	0.020142	0.067139	-0.1265	-0.12421	0.006866	-0.002899	0.044708	-0.007782	-0.023346	-0.030823	0.000763	-0.009308
43.803	-0.005798	0.18677	0.040436	0.004883	-0.032654	-0.074921	-0.11093	0.005646	0.015564	-0.026703	0.007629	-0.014648	0.017242	0.077209	0.003967	-0.007477	-0.020447	-0.37048	-0.17456	0.30609	0.093536	0.004272	-0.20157	0.006866	0.039978	-0.007019	-0.025024	-0.008545	0.005035	-0.025635	-0.004883	-0.003052
43.804	-0.002136	0.19745	0.043335	0	-0.037689	-0.080109	-0.081482	0.009308	0.008698	-0.16327	0.008392	-0.005188	-0.006866	0.032806	-0.007935	-0.002747	-0.031586	-0.37216	-0.20584	0.15182	0.1088	-0.013885	-0.16739	0.10971	0.070801	-0.007629	-0.12344	-0.00824	0.013885	-0.017853	-0.000458	-0.007019
43.805	0	0.17899	0.019989	-0.007324	-0.041351	-0.096588	-0.10498	0.004883	0.004578	-0.16403	0.010223	-0.005646	-0.042572	0.045166	-0.005798	-0.005646	-0.052185	-0.44113	-0.18188	0.038605	0.0914	-0.022278	-0.059814	0.074768	0.091095	-0.007935	-0.1474	-0.005951	0.011139	-0.03418	0.001068	-0.00946
43.806	0.008392	0.18921	0.032043	0.000458	-0.00824	-0.053101	-0.10239	-0.000458	0.003967	-0.17777	0.026855	-0.00473	-0.065155	0.088806	0.017242	0.002594	-0.0383	-0.44098	-0.12192	-0.00351	0.092773	-0.055847	0.025482	0.096893	0.10834	-0.000916	-0.078278	0.000153	-0.035553	-0.030975	-0.000305	-0.013123
43.807	-0.001526	0.16296	0.0737	0.010681	-0.00351	-0.010223	-0.088654	-0.001068	-0.000916	-0.26581	0.031281	-0.002899	-0.023804	0.12711	0.015717	-0.000763	0.005798	-0.45776	-0.15198	-0.045013	0.12619	-0.1059	0.099792	0.054321	0.077667	0.000305	0.27268	-0.008087	-0.04364	-0.019531	0.000305	-0.015106
43.808	-0.00885	0.19394	0.014801	0.019836	-0.00946	-0.029449	-0.1001	0.002747	-0.020447	-0.31708	0.018921	0.001068	-0.068359	0.1004	0.03006	-0.10269	0.006104	-0.45059	-0.11993	-0.06546	0.11826	-0.10254	0.022583	0.075989	0.09613	-0.007019	0.53482	-0.004883	-0.096741	-0.039063	0.001678	-0.016632
43.809	-0.004578	0.16129	-0.014496	0.016174	-0.043182	-0.076904	-0.12573	0.002289	-0.022125	-0.16815	0.019379	-0.006866	-0.097961	0.016632	0.04303	0.20615	0.006256	-0.45929	-0.20416	-0.12985	0.046234	-0.082245	0.007172	0.081329	0.060883	-0.006256	0.69977	0.003815	-0.10819	-0.04364	0.001526	-0.019989
43.81	-0.002136	0.19898	0.021667	0.015259	-0.047302	-0.099487	-0.1413	-0.000916	-0.018158	0.34622	0.020905	-0.010223	-0.090637	-0.072479	0.048828	-0.55267	-0.005188	-0.41779	-0.17929	-0.10193	-0.11841	-0.015411	0.012665	0.22354	0.085754	-0.002289	0.73334	-0.011749	-0.076141	-0.078278	-0.000763	-0.014648
